<svg data-v-0dd9719b="" version="1.0" xmlns="http://www.w3.org/2000/svg" xmlns:xlink="http://www.w3.org/1999/xlink" width="100%" height="100%" viewBox="0 0 340.000000 250.000000" preserveAspectRatio="xMidYMid meet" color-interpolation-filters="sRGB" style="margin: auto;"> <rect data-v-0dd9719b="" x="0" y="0" width="100%" height="100%" fill="#ffffff" fill-opacity="1" class="background"></rect>  <g data-v-0dd9719b="" fill="#333" class="icon-text-wrapper icon-svg-group iconsvg" transform="translate(72.92999267578125,95.21149826049805)"><g class="iconsvg-imagesvg" transform="translate(0,0)"><g><rect fill="#333" fill-opacity="0" stroke-width="2" x="0" y="0" width="60" height="59.57700327673518" class="image-rect"></rect> <svg x="0" y="0" width="60" height="59.57700327673518" filtersec="colorsb704856597" class="image-svg-svg primary" style="overflow: visible;"><svg xmlns="http://www.w3.org/2000/svg" viewBox="-0.02166786603629589 -0.032474614679813385 274.9794921875 273.0400390625"><title>资源 58</title><path d="M232.5 159a28 28 0 0 0-26 17.59l-.16-.09a80.5 80.5 0 1 1 6.39-65.82l.26-.12a28 28 0 1 0 50.52-24.13A136.52 136.52 0 1 0 255.72 203l-.18-.1a28 28 0 0 0-23-43.9z" fill="#296ce1" opacity=".8"></path><rect x="93.62" y="90.79" width="177" height="57.16" rx="28.58" transform="rotate(-21.33 182.093 119.353)" fill="#9c77f7" opacity=".8"></rect><path d="M263.52 86.43c-.71-1.8-1.47-3.58-2.25-5.34A28.7 28.7 0 0 0 227.54 71l-30.91 12a80.51 80.51 0 0 1 16.11 27.66l.26-.12A28 28 0 0 0 238.5 127a26.64 26.64 0 0 0 3.11-.18l6.72-2.62a28.67 28.67 0 0 0 18.16-25.68 28.06 28.06 0 0 0-2.97-12.09z" fill="#296ce1"></path></svg></svg> <!----></g></g> <g transform="translate(67,8.398500442504883)"><g data-gra="path-name" fill-rule="" class="tp-name iconsvg-namesvg"><g transform="scale(1)"><g><path d="M30.36-34.8L30.36-34.8 9.3-34.8 9.3-24.6 24.96-24.6 26.76-17.4 9.3-17.4 9.3-7.2 30.36-7.2 30.36 0 2.1 0 2.1-42 30.36-42 30.36-34.8ZM41.46-27.72L41.46-27.72Q43.14-29.1 45.27-30 47.4-30.9 50.1-30.9L50.1-30.9 50.1-23.7Q46.5-23.7 43.98-21.18L43.98-21.18Q41.46-18.54 41.46-15.06L41.46-15.06 41.46 0 34.26 0 34.26-15.06 34.26-30.06 41.46-30.06 41.46-27.72ZM77.76-29.94L77.76-29.94 77.76-25.08 63.3-7.2 77.04-7.2 77.04 0 57.48 0 57.48 0 52.2 0 52.2-4.86 66.66-22.8 53.46-22.8 53.46-30 72.66-30 72.66-29.94 77.76-29.94ZM94.26-23.64L94.26-23.64Q90.66-23.64 88.14-21.12L88.14-21.12Q85.62-18.6 85.62-15L85.62-15Q85.62-11.46 88.14-8.94L88.14-8.94Q89.34-7.68 90.93-7.05 92.52-6.42 94.26-6.42L94.26-6.42Q96-6.42 97.56-7.05 99.12-7.68 100.38-8.94L100.38-8.94Q102.9-11.46 102.9-15L102.9-15Q102.9-18.6 100.38-21.12L100.38-21.12Q97.74-23.64 94.26-23.64ZM94.26-30.84L94.26-30.84Q97.56-30.84 100.44-29.61 103.32-28.38 105.48-26.22 107.64-24.06 108.87-21.18 110.1-18.3 110.1-15L110.1-15Q110.1-11.76 108.87-8.88 107.64-6 105.48-3.84 103.32-1.68 100.44-0.45 97.56 0.78 94.26 0.78L94.26 0.78Q90.96 0.78 88.08-0.45 85.2-1.68 83.04-3.84 80.88-6 79.65-8.88 78.42-11.76 78.42-15L78.42-15Q78.42-18.3 79.65-21.18 80.88-24.06 83.04-26.22 85.2-28.38 88.08-29.61 90.96-30.84 94.26-30.84ZM127.44-7.2L129.24 0 122.64 0Q120.6 0 118.8-0.78 117-1.56 115.68-2.91 114.36-4.26 113.58-6.06 112.8-7.86 112.8-9.9L112.8-9.9 112.8-36.06 120-37.86 120-26.4 124.2-26.4 126-19.2 120-19.2 120-9.9Q120-8.76 120.78-7.98 121.56-7.2 122.64-7.2L122.64-7.2 127.44-7.2Z" transform="translate(-2.0999999046325684, 42)"></path></g> <!----> <!----> <!----> <!----> <!----> <!----> <!----></g></g> <!----></g></g><defs v-gra="od"></defs></svg>
